<svg id="Calque_1" data-name="Calque 1" xmlns="http://www.w3.org/2000/svg" viewBox="0 0 26.89 29.79"><defs></defs><path d="M17.94,25.83c-.9,2.77-2.34,4-4.6,4S9.7,28.43,9,25.83H1.52A1.33,1.33,0,0,1,0,24.33,12.41,12.41,0,0,1,.07,22.4,2.79,2.79,0,0,1,2.7,20.05c.38,0,.47-.17.47-.52,0-1.94,0-3.89,0-5.84a10.24,10.24,0,0,1,6.89-9.95l.19-.08a10.25,10.25,0,0,1,.11-1.14,3.15,3.15,0,0,1,6.23.58.7.7,0,0,0,.55.77,10.21,10.21,0,0,1,6.58,9.5c0,2,0,4.07,0,6.1,0,.41.1.55.53.59a2.88,2.88,0,0,1,2.64,2.84v1.54a1.32,1.32,0,0,1-1.42,1.39c-2.34,0-4.68,0-7,0Zm7.37-1.6c0-.45,0-.88,0-1.3A1.31,1.31,0,0,0,24,21.62a1.85,1.85,0,0,1-1.89-2c0-2,.05-4.07,0-6.11a9.71,9.71,0,0,0-.48-2.88A8.36,8.36,0,0,0,15.59,5c-.47-.13-.63-.3-.57-.76a7.69,7.69,0,0,0,0-1,1.59,1.59,0,1,0-3.17,0,9.35,9.35,0,0,0,0,1.06c0,.41-.09.57-.51.67a8.65,8.65,0,0,0-6.61,8.5c0,2,0,4,0,6.06a1.86,1.86,0,0,1-1.92,2.05A1.29,1.29,0,0,0,1.6,22.78c0,.47,0,.95,0,1.45ZM10.64,25.85a2.82,2.82,0,0,0,2.95,2.35,2.77,2.77,0,0,0,2.64-2.35Z"/></svg>
