<svg id="Calque_1" data-name="Calque 1" xmlns="http://www.w3.org/2000/svg" viewBox="0 0 512 512.00751"><defs><style>.cls-1{fill:#0a7eab;}</style></defs><title>directions-solid</title><path class="cls-1" d="M502.61,233.32,278.68,9.39a32.0849,32.0849,0,0,0-45.36,0L9.39,233.32a32.08489,32.08489,0,0,0,0,45.36L233.32,502.61a32.06674,32.06674,0,0,0,45.36,0L502.61,278.68a32.08489,32.08489,0,0,0,0-45.36ZM401.63,245.88l-84.21,77.73a8.00228,8.00228,0,0,1-13.43-5.88V264h-96v64a7.99778,7.99778,0,0,1-8,8h-32a7.99778,7.99778,0,0,1-8-8V248a32.004,32.004,0,0,1,32-32h112V162.27a8.00358,8.00358,0,0,1,13.43-5.88l84.21,77.73a8.00624,8.00624,0,0,1,0,11.76Z" transform="translate(0 0.00001)"/></svg>