<svg id="Calque_1" data-name="Calque 1" xmlns="http://www.w3.org/2000/svg" viewBox="0 0 26.89 29.79"><defs><style>.cls-1{fill:#5a52a8;}</style></defs><g id="Groupe_25" data-name="Groupe 25"><path id="IconeOV" class="cls-1" d="M9.46,20v7.89c0,.91-.28,1.19-1.19,1.19H2C1.21,29.11.9,28.82.9,28V11.84a1.39,1.39,0,0,1,.51-1.14C5.15,7.51,8.86,4.29,12.58,1.1c.65-.54,1-.57,1.61,0L25.5,10.73A1.31,1.31,0,0,1,26,11.8V27.92c0,.85-.32,1.19-1.2,1.19H18.5c-.78,0-1.12-.31-1.12-1.12V20.51A67.62,67.62,0,0,0,9.46,20Zm4-17.13-.26.18C9.8,6,6.4,8.86,3,11.77a.67.67,0,0,0-.26.6V27.24H7.62V19.37c0-.86.31-1.17,1.17-1.17h9.26c.91,0,1.22.29,1.22,1.2v7.84h4.88V12.34a.75.75,0,0,0-.28-.6c-2.42-2-4.8-4.08-7.19-6.13Z"/></g></svg>
