<svg id="Calque_1" data-name="Calque 1" xmlns="http://www.w3.org/2000/svg" viewBox="0 0 28.72 26.79"><defs><style>.cls-1{fill:#5a52a8;}</style></defs><path class="cls-1" d="M6.16,18.31v6.32a.67.67,0,0,1-.65.76c-.41,0-.67-.29-.67-.76V18.31a4.52,4.52,0,0,1-3-1.95A4.31,4.31,0,0,1,1,13.66a4.52,4.52,0,0,1,3.8-4.19V1.94a2.08,2.08,0,0,1,0-.25.65.65,0,0,1,.64-.62.66.66,0,0,1,.67.6,2.44,2.44,0,0,1,0,.27V9.48a4.48,4.48,0,0,1,3.08,2A4.26,4.26,0,0,1,10,14.15,4.5,4.5,0,0,1,6.16,18.31ZM5.48,17a3.14,3.14,0,1,0-3.12-3.15A3.14,3.14,0,0,0,5.48,17Z"/><path class="cls-1" d="M23.88,14.71V24.85a2.43,2.43,0,0,1,0,.27.67.67,0,0,1-.68.6.66.66,0,0,1-.64-.63V14.71a4.5,4.5,0,0,1-3.08-2A4.29,4.29,0,0,1,18.77,10a4.49,4.49,0,0,1,3.79-4.08V2.11a.65.65,0,0,1,.65-.71.66.66,0,0,1,.67.71V5.89a4.41,4.41,0,0,1,2.84,1.66,4.27,4.27,0,0,1,1,2.53,4.3,4.3,0,0,1-1,3A4.49,4.49,0,0,1,23.88,14.71Zm-.65-7.54a3.14,3.14,0,1,0,3.13,3.12A3.13,3.13,0,0,0,23.23,7.17Z"/><path class="cls-1" d="M14.52,14.32V2.66c0-.47.24-.76.64-.78a.65.65,0,0,1,.68.61,2.62,2.62,0,0,1,0,.28V14.32a4.48,4.48,0,0,1,3.07,2A4.32,4.32,0,0,1,19.64,19a4.49,4.49,0,0,1-3.79,4.18c0,.35,0,.69,0,1a.66.66,0,0,1-.66.72.67.67,0,0,1-.66-.73v-1a4.51,4.51,0,0,1-3-1.94,4.32,4.32,0,0,1-.75-2.74A4.49,4.49,0,0,1,14.52,14.32Zm.68,1.28a3.14,3.14,0,1,0,3.12,3.15A3.13,3.13,0,0,0,15.2,15.6Z"/></svg>
