<svg id="Calque_1" data-name="Calque 1" xmlns="http://www.w3.org/2000/svg" viewBox="0 0 406.20034 512.00033"><defs><style>.cls-1{fill:#5a52a8;}</style></defs><title>sourcetree-brands</title><path class="cls-1" d="M427.2,203c0-112.1-90.9-203-203-203C112.1-.2,21.2,90.6,21,202.6A202.86,202.86,0,0,0,161.5,396V497.7A14.3,14.3,0,0,0,175.8,512h96.4a14.3,14.3,0,0,0,14.3-14.3V396.1A203.18,203.18,0,0,0,427.2,203Zm-271.6,0c0-90.8,137.3-90.8,137.3,0-.1,89.9-137.3,91-137.3,0Z" transform="translate(-20.99967 0.00034)"/></svg>