<svg id="Calque_1" data-name="Calque 1" xmlns="http://www.w3.org/2000/svg" viewBox="0 0 26.89 23.22"><defs><style>.cls-1{fill:#5a52a8;}</style></defs><title>LibraryDashboard</title><path class="cls-1" d="M22.41,21.39a11.91,11.91,0,0,0,3-7.17H22.05c-.52,0-.85-.28-.85-.74a.75.75,0,0,1,.85-.74h3.31C25.58,10.91,24,7,22.41,5.57L20.66,7.32c-.21.21-.41.42-.62.62a.76.76,0,0,1-1.1,0,.74.74,0,0,1,0-1.1l2.15-2.15.23-.25a12,12,0,0,0-7.17-3V4.85c0,.52-.3.85-.74.85a.76.76,0,0,1-.75-.84c0-1,0-2,0-3V1.51a12,12,0,0,0-7.17,3l.22.23L7.89,6.84A.76.76,0,1,1,6.83,7.9L4.48,5.54a12,12,0,0,0-3,7.18H4.85a.75.75,0,1,1,0,1.49H1.49a11.94,11.94,0,0,0,3,7.18c.79-.8,1.56-1.58,2.35-2.34a1.09,1.09,0,0,1,.49-.3.7.7,0,0,1,.78.38A.72.72,0,0,1,8,20L6.79,21.18,5.07,22.89a.76.76,0,0,1-1.25,0A13.2,13.2,0,0,1,0,12.47a13.45,13.45,0,0,1,26.64-1.42,13.18,13.18,0,0,1-3.6,11.81.77.77,0,0,1-1.28,0c-.94-.95-1.88-1.89-2.83-2.83a.77.77,0,0,1-.18-.91.69.69,0,0,1,.74-.4,1.31,1.31,0,0,1,.53.29c.71.69,1.41,1.4,2.11,2.1Z"/><path class="cls-1" d="M18,8.59l-1.26,2.84-1.89,4.32a1.48,1.48,0,0,1-2.72-.06,1.48,1.48,0,0,1,.33-1.63l5-5c.16-.15.31-.32.47-.48Z"/></svg>