<svg id="Calque_1" data-name="Calque 1" xmlns="http://www.w3.org/2000/svg" viewBox="0 0 21.00652 24.00798"><defs></defs><path id="Tracé_492" data-name="Tracé 492" d="M12.56591,19.50715h1.12565a.56282.56282,0,0,0,.56283-.56282h0V8.81524a.56282.56282,0,0,0-.56283-.56282H12.56591a.5628.5628,0,0,0-.56283.56281h0V18.94433a.56282.56282,0,0,0,.56283.56282ZM20.25638,3.75158h-3.8645l-1.594-2.65832A2.25045,2.25045,0,0,0,12.86615,0H8.13949A2.25042,2.25042,0,0,0,6.20944,1.09239L4.61463,3.7507H.75014A.75014.75014,0,0,0,0,4.50084v.751A.75015.75015,0,0,0,.75014,6.002h.75013V21.75756A2.25042,2.25042,0,0,0,3.7507,24.008H17.25584a2.25041,2.25041,0,0,0,2.25043-2.2504v0h0V6.002h.75014a.75013.75013,0,0,0,.75011-.75013V4.50172A.75014.75014,0,0,0,20.25638,3.75158ZM8.05719,2.38785a.281.281,0,0,1,.24158-.13655h4.40807a.281.281,0,0,1,.24159.13655l.81841,1.36373H7.23877Zm9.19862,19.3706H3.75068V6.00287H17.25581ZM7.31493,19.508H8.44059a.56282.56282,0,0,0,.56283-.56282h0v-10.13a.56282.56282,0,0,0-.56283-.56282H7.31493a.56281.56281,0,0,0-.56283.56281h0V18.94433a.56282.56282,0,0,0,.56195.56282Z"/></svg>
